<?xml version="1.0" standalone="no"?><!DOCTYPE svg PUBLIC "-//W3C//DTD SVG 1.1//EN" "http://www.w3.org/Graphics/SVG/1.1/DTD/svg11.dtd"><svg t="1738897882276" class="icon" viewBox="0 0 1024 1024" version="1.1" xmlns="http://www.w3.org/2000/svg" p-id="12094" xmlns:xlink="http://www.w3.org/1999/xlink" width="200" height="200"><path d="M266.135864 66.438508C402.067525-9.059797 573.301153-16.245153 715.376814 46.618034 820.31078 92.298847 908.652475 174.808949 961.483932 276.306441 999.389288 347.812881 1018.619661 428.413831 1019.452746 509.223051 944.822237 476.420339 870.157017 443.617627 795.422373 410.988475 753.629288 393.111864 712.808136 372.041763 668.481085 361.038102 618.287729 349.479051 559.65939 343.196203 515.124068 374.610441 440.077017 430.531254 368.188746 491.103458 304.180068 559.555254 295.016136 569.656407 278.875119 577.466576 266.031729 569.448136 247.877424 557.125424 232.500068 538.936407 210.215051 534.076746 187.999458 529.87661 166.44339 540.498441 148.913898 553.168271 139.298712 560.388339 126.594169 565.838102 115.069831 559.520542 117.430237 540.533153 130.551322 525.745898 141.138441 510.646237 219.587254 406.649492 342.536678 341.252339 470.345763 322.369085 470.345763 320.945898 470.345763 318.168949 470.345763 316.780475 371.312814 318.516068 270.162441 339.516746 184.87539 391.653966 140.409492 418.277966 98.998237 451.150102 66.855051 492.110102 41.376542 524.045017 23.430508 561.637966 12.010305 600.723525 8.886237 593.017492 6.907661 584.860203 6.491119 576.529356-5.137356 486.48678 7.567186 393.042441 44.222915 309.872814 88.306983 206.986847 167.970712 120.068339 266.135864 66.438508Z" fill="#000000" opacity="1.00" p-id="12095"></path><path d="M585.103186 451.288949C610.998237 442.055593 639.392542 446.221017 664.871051 454.829559 766.333831 493.220881 867.692475 531.751051 969.120542 570.177085 983.907797 576.42522 999.875254 579.965831 1013.655864 588.504949 1001.367864 670.737356 968.461017 749.845695 918.44122 816.249492 855.092068 900.599322 765.500746 965.54522 664.48922 996.716475 581.111322 1023.409898 491.034034 1026.533966 405.399864 1009.455729 313.552271 990.225356 227.536271 944.475119 159.709288 879.737492 99.102373 822.601763 54.393492 749.880407 27.457085 671.292746 51.408271 683.823729 80.462102 677.193763 101.671051 662.232949 121.977492 650.430915 139.923525 630.922847 164.881356 630.367458 185.326644 630.367458 199.003119 647.445695 213.825085 658.970034 233.853831 674.034983 250.654373 694.619119 275.126237 702.741695 301.472542 712.14861 331.255322 700.867254 349.687322 681.04678 403.698983 621.793627 458.370169 563.095864 513.839729 505.196475 534.666847 483.918102 556.50061 461.702508 585.103186 451.288949Z" fill="#000000" opacity="1.00" p-id="12096"></path></svg>